<svg width="24" height="24" viewBox="0 0 24 24" fill="none" xmlns="http://www.w3.org/2000/svg">
<path d="M22.2 9.66663H17.7472C18.2231 10.7454 18.0143 12.0437 17.1098 12.9231L12 17.8909V19.5833C12 20.5498 12.8059 21.3333 13.8 21.3333H22.2C23.1941 21.3333 24 20.5498 24 19.5833V11.4166C24 10.4501 23.1941 9.66663 22.2 9.66663Z" fill="black"/>
<path d="M9.70125 3.19053L16.2611 9.56819C16.9796 10.2667 16.9796 11.3995 16.2611 12.0984L9.70088 18.4761C8.98238 19.1746 7.81725 19.1746 7.09875 18.4761L0.538875 12.098C-0.179625 11.3995 -0.179625 10.2667 0.538875 9.56819L7.09912 3.19053C7.81763 2.49199 8.98275 2.49199 9.70125 3.19053Z" fill="black"/>
<path d="M16.9468 15.4907C16.9468 16.0561 17.4186 16.5148 18.0001 16.5148C18.5816 16.5148 19.0534 16.0561 19.0534 15.4907C19.0534 14.9249 18.5816 14.4667 18.0001 14.4667C17.4186 14.4667 16.9468 14.9249 16.9468 15.4907Z" fill="#B18157"/>
<path d="M8.51074 15.2075C8.51074 15.6312 8.86436 15.975 9.30022 15.975C9.73608 15.975 10.0897 15.6312 10.0897 15.2075C10.0897 14.7834 9.73608 14.4399 9.30022 14.4399C8.86436 14.4399 8.51074 14.7834 8.51074 15.2075Z" fill="#B18157"/>
<path d="M8.51074 7.2175C8.51074 7.64125 8.86436 7.98505 9.30022 7.98505C9.73608 7.98505 10.0897 7.64125 10.0897 7.2175C10.0897 6.79343 9.73608 6.44995 9.30022 6.44995C8.86436 6.44995 8.51074 6.79343 8.51074 7.2175Z" fill="#B18157"/>
<path d="M8.51074 11.211C8.51074 11.6348 8.86436 11.9786 9.30022 11.9786C9.73608 11.9786 10.0897 11.6348 10.0897 11.211C10.0897 10.787 9.73608 10.4435 9.30022 10.4435C8.86436 10.4435 8.51074 10.787 8.51074 11.211Z" fill="#B18157"/>
<path d="M12.6201 11.211C12.6201 11.6348 12.9737 11.9786 13.4096 11.9786C13.8455 11.9786 14.1991 11.6348 14.1991 11.211C14.1991 10.787 13.8455 10.4435 13.4096 10.4435C12.9737 10.4435 12.6201 10.787 12.6201 11.211Z" fill="#B18157"/>
<path d="M4.3999 11.211C4.3999 11.6348 4.75352 11.9786 5.18938 11.9786C5.62524 11.9786 5.97886 11.6348 5.97886 11.211C5.97886 10.787 5.62524 10.4435 5.18938 10.4435C4.75352 10.4435 4.3999 10.787 4.3999 11.211Z" fill="#B18157"/>
</svg>
